<?xml version="1.0" standalone="no"?>
<!DOCTYPE svg PUBLIC "-//W3C//DTD SVG 20010904//EN"
 "http://www.w3.org/TR/2001/REC-SVG-20010904/DTD/svg10.dtd">
<svg version="1.0" xmlns="http://www.w3.org/2000/svg"
 width="500.000000pt" height="500.000000pt" viewBox="0 0 500.000000 500.000000"
 preserveAspectRatio="xMidYMid meet">
<metadata>
Created by potrace 1.11, written by Peter Selinger 2001-2013
</metadata>
<g transform="translate(0.000000,500.000000) scale(0.100000,-0.100000)"
fill="#000000" stroke="none">
<path d="M2285 4984 c-16 -2 -73 -9 -125 -15 -434 -49 -895 -244 -1255 -529
-103 -81 -304 -282 -385 -385 -176 -222 -332 -510 -419 -770 -45 -136 -106
-385 -94 -385 3 0 149 147 326 326 176 179 333 332 349 340 42 22 119 28 162
14 79 -26 145 -113 146 -190 0 -94 4 -90 -428 -522 l-406 -408 405 -407 c431
-433 429 -432 429 -524 -1 -81 -70 -165 -156 -189 -50 -14 -96 -9 -149 16 -21
10 -166 149 -350 337 -173 176 -315 313 -315 304 0 -29 58 -240 95 -347 80
-229 244 -522 405 -725 81 -103 282 -304 385 -385 351 -278 779 -463 1220
-525 135 -20 555 -20 690 0 441 62 869 247 1220 525 103 81 304 282 385 385
169 213 328 501 413 750 42 122 92 313 85 321 -2 2 -142 -139 -312 -312 -169
-173 -321 -321 -337 -329 -48 -25 -111 -29 -166 -11 -113 38 -173 165 -128
273 10 25 150 173 417 441 l401 403 -406 408 c-224 224 -408 414 -408 422 -1
7 -5 -10 -9 -39 -10 -68 -46 -115 -105 -137 -69 -27 -111 -16 -221 55 -112 73
-237 133 -313 150 -69 16 -218 16 -296 0 -83 -17 -173 -62 -234 -116 -68 -61
-95 -113 -95 -184 0 -99 75 -175 235 -238 71 -28 108 -38 374 -98 296 -66 484
-159 620 -306 198 -214 186 -547 -28 -766 -105 -108 -277 -204 -444 -247 -334
-87 -712 3 -1044 249 -72 53 -90 72 -104 110 -34 90 -2 180 79 217 81 37 116
27 253 -73 98 -72 234 -141 338 -170 64 -18 106 -22 210 -22 148 -1 208 11
310 60 128 61 217 163 231 266 7 52 -20 125 -64 171 -75 79 -243 147 -487 198
-413 85 -614 187 -736 373 -111 168 -111 404 0 572 132 202 392 336 678 351
140 7 231 -6 392 -59 162 -54 380 -180 423 -246 l18 -27 0 45 c1 87 63 173
146 200 43 15 120 8 162 -14 16 -8 172 -160 346 -337 187 -191 316 -315 316
-304 0 10 -12 70 -26 133 -76 338 -256 710 -484 997 -81 103 -282 304 -385
385 -351 278 -770 459 -1220 526 -95 14 -467 27 -530 18z m-82 -1418 c64 -27
107 -93 107 -163 0 -25 -128 -340 -407 -1006 -224 -534 -416 -984 -428 -1001
-42 -64 -139 -84 -221 -47 -65 30 -113 117 -99 182 7 30 788 1897 818 1956 42
80 145 115 230 79z"/>
</g>
</svg>
